<svg xmlns="http://www.w3.org/2000/svg" width="64" height="64" class="icon" viewBox="0 0 1024 1024"><path fill="#E65100" d="M477.717 165.099c-73.834 20.352-147.285 61.568-209.728 122.965C137.451 416.448 95.573 592.107 153.451 719.659c.085.256.042.448.149.704 22.592 58.176-7.36 106.432 7.872 121.386 15.21 14.955 76.075-14.954 121.899 7.062.49.256.832.17 1.322.362 129.771 57.558 308.886 16.534 439.723-112.149 62.421-61.461 104.32-133.717 124.992-206.315z" class="selected" data-spm-anchor-id="a313x.search_index.0.i0.67af3a816HxXY3"/><path fill="#FFA726" d="m548.459 461.27-.171-.193c-117.29-115.328-176.32-201.301-175.51-255.424.32-19.605 8.449-29.205 11.947-32.448 91.2-89.706 215.872-70.57 341.568 53.056a503.765 503.765 0 0 1 28.8 30.699c6.55 4.8 25.088 18.837 46.678 40.064 109.696 107.904 124.309 226.09 40.17 324.245-3.349 3.776-12.586 11.883-31.68 12.544-53.653 1.899-141.696-56.149-261.76-172.544z" class="selected" data-spm-anchor-id="a313x.search_index.0.i2.67af3a816HxXY3"/><path fill="#AA3304" d="M779.37 673.152c9.366-12.885 17.771-26.112 25.622-39.488-54.037-1.792-140.181-59.627-256.49-172.352l-.043-.043-.171-.192C433.216 347.904 374.4 263.125 372.949 208.853c-13.568 7.723-27.008 15.979-40.106 25.174 13.525 64.32 73.237 147.072 185.002 257.024 137.536 133.29 214.251 172.288 261.526 182.101" class="selected" data-spm-anchor-id="a313x.search_index.0.i1.67af3a816HxXY3"/><path fill="#FB8C00" d="M252.779 751.979c-39.19-38.55-80.875-66.902-116.118-81.344 4.139 16.938 9.686 33.365 16.79 49.024.085.256.042.448.149.704 22.592 58.176-7.36 106.432 7.872 121.386 15.21 14.955 76.075-14.954 121.899 7.062.49.256.832.17 1.322.362 16.235 7.19 33.216 12.864 50.774 16.982-14.72-34.603-43.52-75.627-82.688-114.176"/><path fill="#BF360C" d="M823.317 115.968a32.704 32.704 0 0 0-45.653 0 31.403 31.403 0 0 0 0 44.885c11.52 11.35 5.888 44.374-4.672 59.584-19.307 23.595-46.4 42.219-59.05 49.152a21.013 21.013 0 0 0-4.737 33.472c6.614 6.507 17.067 8.214 25.643 3.499 2.56-1.387 48.725-27.008 78.272-67.84h.021c40.363-43.477 22.784-110.357 10.176-122.752"/></svg>